<svg width="40" height="40" viewBox="0 0 40 40" fill="none" xmlns="http://www.w3.org/2000/svg">
<circle cx="20" cy="20" r="20" fill="#161A21"/>
<path d="M28.1914 10.125H11.8086C11.5977 10.125 11.4102 10.207 11.2461 10.3711C11.082 10.5352 11 10.7227 11 10.9336V27.3164C11 27.5273 11.082 27.7148 11.2461 27.8789C11.4102 28.043 11.5977 28.125 11.8086 28.125H28.1914C28.4023 28.125 28.5898 28.043 28.7539 27.8789C28.918 27.7148 29 27.5273 29 27.3164V10.9336C29 10.7227 28.918 10.5352 28.7539 10.3711C28.5898 10.207 28.4023 10.125 28.1914 10.125ZM22.2148 16.9102C22.8242 17.5195 23.1289 18.2578 23.1289 19.125C23.1289 19.9922 22.8242 20.7305 22.2148 21.3398C21.6055 21.9492 20.8672 22.2539 20 22.2539C19.1328 22.2539 18.3945 21.9492 17.7852 21.3398C17.1758 20.7305 16.8711 19.9922 16.8711 19.125C16.8711 18.2578 17.1758 17.5195 17.7852 16.9102C18.3945 16.3008 19.1328 15.9961 20 15.9961C20.8672 15.9961 21.6055 16.3008 22.2148 16.9102ZM26.75 25.875H13.25V18H14.7266C14.6562 18.375 14.6211 18.75 14.6211 19.125C14.6211 20.6016 15.1484 21.8672 16.2031 22.9219C17.2578 23.9766 18.5234 24.5039 20 24.5039C21.4766 24.5039 22.7422 23.9766 23.7969 22.9219C24.8516 21.8672 25.3789 20.6016 25.3789 19.125C25.3789 18.75 25.3438 18.375 25.2734 18H26.75V25.875ZM26.75 15.75H23.375V12.375H26.75V15.75Z" fill="#F8F7F4"/>
</svg>
