<svg width="40" height="40" viewBox="0 0 40 40" fill="none" xmlns="http://www.w3.org/2000/svg">
<circle cx="20" cy="20" r="20" fill="#161A21"/>
<path d="M26.5742 12.9727C21.6992 12.6445 17.3164 12.6445 13.4258 12.9727C12.8164 13.043 12.3008 13.3828 11.8789 13.9922C11.457 14.6016 11.2109 15.2344 11.1406 15.8906C10.9766 18.0469 10.9766 20.2031 11.1406 22.3594C11.2109 23.0156 11.457 23.6484 11.8789 24.2578C12.3008 24.8672 12.8164 25.2188 13.4258 25.3125C18.1602 25.6172 22.543 25.6172 26.5742 25.3125C27.1836 25.1953 27.6992 24.832 28.1211 24.2227C28.543 23.6133 28.7891 22.9922 28.8594 22.3594C29.0234 20.1562 29.0234 17.9414 28.8594 15.7148C28.7891 15.0352 28.5547 14.4141 28.1562 13.8516C27.7812 13.2891 27.2539 12.9961 26.5742 12.9727ZM17.75 22.3242V15.8555L23.375 19.0898L17.75 22.3242Z" fill="#F8F7F4"/>
</svg>
